<?xml version="1.0" encoding="UTF-8" standalone="no"?>
<!DOCTYPE svg PUBLIC "-//W3C//DTD SVG 1.1//EN"
 "http://www.w3.org/Graphics/SVG/1.1/DTD/svg11.dtd">
<!-- Generated by graphviz version 2.47.3 (20210619.1520)
 -->
<!-- Title: dependencies Pages: 1 -->
<svg width="314pt" height="174pt"
 viewBox="0.00 0.00 314.00 173.80" xmlns="http://www.w3.org/2000/svg" xmlns:xlink="http://www.w3.org/1999/xlink">
<g id="graph0" class="graph" transform="scale(1 1) rotate(0) translate(4 169.8)">
<title>dependencies</title>
<polygon fill="white" stroke="transparent" points="-4,4 -4,-169.8 310,-169.8 310,4 -4,4"/>
<text text-anchor="middle" x="153" y="-8.2" font-family="sans-serif" font-size="14.00">dependencies</text>
<g id="clust1" class="cluster">
<title>cluster_UsersModule</title>
<polygon fill="none" stroke="black" stroke-dasharray="1,5" points="8,-32.8 8,-157.8 298,-157.8 298,-32.8 8,-32.8"/>
</g>
<g id="clust6" class="cluster">
<title>cluster_UsersModule_providers</title>
<polygon fill="none" stroke="black" points="150,-40.8 150,-92.8 290,-92.8 290,-40.8 150,-40.8"/>
</g>
<g id="clust3" class="cluster">
<title>cluster_UsersModule_imports</title>
<polygon fill="none" stroke="black" points="16,-40.8 16,-92.8 142,-92.8 142,-40.8 16,-40.8"/>
</g>
<!-- DatabaseModule -->
<g id="node1" class="node">
<title>DatabaseModule</title>
<polygon fill="#8dd3c7" stroke="black" points="134.35,-84.8 131.35,-88.8 110.35,-88.8 107.35,-84.8 23.65,-84.8 23.65,-48.8 134.35,-48.8 134.35,-84.8"/>
<text text-anchor="middle" x="79" y="-62.6" font-family="Times,serif" font-size="14.00">DatabaseModule</text>
</g>
<!-- UsersModule -->
<g id="node2" class="node">
<title>UsersModule</title>
<polygon fill="#8dd3c7" stroke="black" points="194.92,-149.8 191.92,-153.8 170.92,-153.8 167.92,-149.8 103.08,-149.8 103.08,-113.8 194.92,-113.8 194.92,-149.8"/>
<text text-anchor="middle" x="149" y="-127.6" font-family="Times,serif" font-size="14.00">UsersModule</text>
</g>
<!-- DatabaseModule&#45;&gt;UsersModule -->
<g id="edge1" class="edge">
<title>DatabaseModule&#45;&gt;UsersModule</title>
<path fill="none" stroke="black" d="M118.86,-84.91C118.86,-84.91 118.86,-103.79 118.86,-103.79"/>
<polygon fill="black" stroke="black" points="115.36,-103.79 118.86,-113.79 122.36,-103.79 115.36,-103.79"/>
</g>
<!-- UsersService -->
<g id="node3" class="node">
<title>UsersService</title>
<ellipse fill="#fdb462" stroke="black" cx="220" cy="-66.8" rx="61.95" ry="18"/>
<text text-anchor="middle" x="220" y="-62.6" font-family="Times,serif" font-size="14.00">UsersService</text>
</g>
<!-- UsersService&#45;&gt;UsersModule -->
<g id="edge2" class="edge">
<title>UsersService&#45;&gt;UsersModule</title>
<path fill="none" stroke="black" d="M176.37,-79.64C176.37,-79.64 176.37,-103.32 176.37,-103.32"/>
<polygon fill="black" stroke="black" points="172.87,-103.32 176.37,-113.32 179.87,-103.32 172.87,-103.32"/>
</g>
</g>
</svg>
