<?xml version="1.0" encoding="UTF-8" standalone="no"?>
<!DOCTYPE svg PUBLIC "-//W3C//DTD SVG 1.1//EN"
 "http://www.w3.org/Graphics/SVG/1.1/DTD/svg11.dtd">
<!-- Generated by graphviz version 2.47.3 (20210619.1520)
 -->
<!-- Title: dependencies Pages: 1 -->
<svg width="294pt" height="174pt"
 viewBox="0.00 0.00 294.00 173.80" xmlns="http://www.w3.org/2000/svg" xmlns:xlink="http://www.w3.org/1999/xlink">
<g id="graph0" class="graph" transform="scale(1 1) rotate(0) translate(4 169.8)">
<title>dependencies</title>
<polygon fill="white" stroke="transparent" points="-4,4 -4,-169.8 290,-169.8 290,4 -4,4"/>
<text text-anchor="middle" x="143" y="-8.2" font-family="sans-serif" font-size="14.00">dependencies</text>
<g id="clust1" class="cluster">
<title>cluster_LoginModule</title>
<polygon fill="none" stroke="black" stroke-dasharray="1,5" points="8,-32.8 8,-157.8 278,-157.8 278,-32.8 8,-32.8"/>
</g>
<g id="clust6" class="cluster">
<title>cluster_LoginModule_providers</title>
<polygon fill="none" stroke="black" points="128,-40.8 128,-92.8 270,-92.8 270,-40.8 128,-40.8"/>
</g>
<g id="clust3" class="cluster">
<title>cluster_LoginModule_imports</title>
<polygon fill="none" stroke="black" points="16,-40.8 16,-92.8 120,-92.8 120,-40.8 16,-40.8"/>
</g>
<!-- AuthModule -->
<g id="node1" class="node">
<title>AuthModule</title>
<polygon fill="#8dd3c7" stroke="black" points="111.55,-84.8 108.55,-88.8 87.55,-88.8 84.55,-84.8 24.45,-84.8 24.45,-48.8 111.55,-48.8 111.55,-84.8"/>
<text text-anchor="middle" x="68" y="-62.6" font-family="Times,serif" font-size="14.00">AuthModule</text>
</g>
<!-- LoginModule -->
<g id="node2" class="node">
<title>LoginModule</title>
<polygon fill="#8dd3c7" stroke="black" points="179.49,-149.8 176.49,-153.8 155.49,-153.8 152.49,-149.8 86.51,-149.8 86.51,-113.8 179.49,-113.8 179.49,-149.8"/>
<text text-anchor="middle" x="133" y="-127.6" font-family="Times,serif" font-size="14.00">LoginModule</text>
</g>
<!-- AuthModule&#45;&gt;LoginModule -->
<g id="edge1" class="edge">
<title>AuthModule&#45;&gt;LoginModule</title>
<path fill="none" stroke="black" d="M99.14,-84.91C99.14,-84.91 99.14,-103.79 99.14,-103.79"/>
<polygon fill="black" stroke="black" points="95.64,-103.79 99.14,-113.79 102.64,-103.79 95.64,-103.79"/>
</g>
<!-- LoginService -->
<g id="node3" class="node">
<title>LoginService</title>
<ellipse fill="#fdb462" stroke="black" cx="199" cy="-66.8" rx="63.12" ry="18"/>
<text text-anchor="middle" x="199" y="-62.6" font-family="Times,serif" font-size="14.00">LoginService</text>
</g>
<!-- LoginService&#45;&gt;LoginModule -->
<g id="edge2" class="edge">
<title>LoginService&#45;&gt;LoginModule</title>
<path fill="none" stroke="black" d="M157.72,-80.58C157.72,-80.58 157.72,-103.35 157.72,-103.35"/>
<polygon fill="black" stroke="black" points="154.22,-103.35 157.72,-113.35 161.22,-103.35 154.22,-103.35"/>
</g>
</g>
</svg>
