<?xml version="1.0" encoding="UTF-8" standalone="no"?>
<!DOCTYPE svg PUBLIC "-//W3C//DTD SVG 1.1//EN"
 "http://www.w3.org/Graphics/SVG/1.1/DTD/svg11.dtd">
<!-- Generated by graphviz version 2.47.3 (20210619.1520)
 -->
<!-- Title: dependencies Pages: 1 -->
<svg width="844pt" height="380pt"
 viewBox="0.00 0.00 844.00 379.80" xmlns="http://www.w3.org/2000/svg" xmlns:xlink="http://www.w3.org/1999/xlink">
<g id="graph0" class="graph" transform="scale(1 1) rotate(0) translate(4 375.8)">
<title>dependencies</title>
<polygon fill="white" stroke="transparent" points="-4,4 -4,-375.8 840,-375.8 840,4 -4,4"/>
<text text-anchor="middle" x="418" y="-8.2" font-family="sans-serif" font-size="14.00">dependencies</text>
<g id="clust1" class="cluster">
<title>cluster_AppModule</title>
<polygon fill="none" stroke="black" stroke-dasharray="1,5" points="188,-108.8 188,-363.8 344,-363.8 344,-108.8 188,-108.8"/>
</g>
<g id="clust3" class="cluster">
<title>cluster_AppModule_imports</title>
<polygon fill="none" stroke="black" points="196,-116.8 196,-298.8 304,-298.8 304,-116.8 196,-116.8"/>
</g>
<g id="clust7" class="cluster">
<title>cluster_AuthModule</title>
<polygon fill="none" stroke="black" stroke-dasharray="1,5" points="8,-32.8 8,-100.8 828,-100.8 828,-32.8 8,-32.8"/>
</g>
<g id="clust9" class="cluster">
<title>cluster_AuthModule_imports</title>
<polygon fill="none" stroke="black" points="130,-40.8 130,-92.8 256,-92.8 256,-40.8 130,-40.8"/>
</g>
<g id="clust10" class="cluster">
<title>cluster_AuthModule_exports</title>
<polygon fill="none" stroke="black" points="16,-40.8 16,-92.8 122,-92.8 122,-40.8 16,-40.8"/>
</g>
<g id="clust12" class="cluster">
<title>cluster_AuthModule_providers</title>
<polygon fill="none" stroke="black" points="264,-40.8 264,-92.8 820,-92.8 820,-40.8 264,-40.8"/>
</g>
<g id="clust19" class="cluster">
<title>cluster_LoginModule</title>
<polygon fill="none" stroke="black" stroke-dasharray="1,5" points="22,-173.8 22,-241.8 180,-241.8 180,-173.8 22,-173.8"/>
</g>
<g id="clust24" class="cluster">
<title>cluster_LoginModule_providers</title>
<polygon fill="none" stroke="black" points="30,-181.8 30,-233.8 172,-233.8 172,-181.8 30,-181.8"/>
</g>
<!-- AuthModule -->
<g id="node1" class="node">
<title>AuthModule</title>
<polygon fill="#8dd3c7" stroke="black" points="295.55,-225.8 292.55,-229.8 271.55,-229.8 268.55,-225.8 208.45,-225.8 208.45,-189.8 295.55,-189.8 295.55,-225.8"/>
<text text-anchor="middle" x="252" y="-203.6" font-family="Times,serif" font-size="14.00">AuthModule</text>
</g>
<!-- LoginModule -->
<g id="node2" class="node">
<title>LoginModule</title>
<polygon fill="#8dd3c7" stroke="black" points="296.49,-290.8 293.49,-294.8 272.49,-294.8 269.49,-290.8 203.51,-290.8 203.51,-254.8 296.49,-254.8 296.49,-290.8"/>
<text text-anchor="middle" x="250" y="-268.6" font-family="Times,serif" font-size="14.00">LoginModule</text>
</g>
<!-- AuthModule&#45;&gt;LoginModule -->
<g id="edge11" class="edge">
<title>AuthModule&#45;&gt;LoginModule</title>
<path fill="none" stroke="black" d="M252,-225.91C252,-225.91 252,-244.79 252,-244.79"/>
<polygon fill="black" stroke="black" points="248.5,-244.79 252,-254.79 255.5,-244.79 248.5,-244.79"/>
</g>
<!-- AppModule -->
<g id="node4" class="node">
<title>AppModule</title>
<polygon fill="#8dd3c7" stroke="black" points="335.66,-355.8 332.66,-359.8 311.66,-359.8 308.66,-355.8 252.34,-355.8 252.34,-319.8 335.66,-319.8 335.66,-355.8"/>
<text text-anchor="middle" x="294" y="-333.6" font-family="Times,serif" font-size="14.00">AppModule</text>
</g>
<!-- AuthModule&#45;&gt;AppModule -->
<g id="edge1" class="edge">
<title>AuthModule&#45;&gt;AppModule</title>
<path fill="none" stroke="black" d="M295.86,-219.8C307.14,-219.8 316.16,-219.8 316.16,-219.8 316.16,-219.8 316.16,-309.62 316.16,-309.62"/>
<polygon fill="black" stroke="black" points="312.66,-309.62 316.16,-319.62 319.66,-309.62 312.66,-309.62"/>
</g>
<!-- AuthService  -->
<g id="node6" class="node">
<title>AuthService </title>
<polygon fill="#fb8072" stroke="black" points="113.98,-84.8 24.02,-84.8 24.02,-48.8 113.98,-48.8 113.98,-84.8"/>
<text text-anchor="middle" x="69" y="-62.6" font-family="Times,serif" font-size="14.00">AuthService </text>
</g>
<!-- AuthModule&#45;&gt;AuthService  -->
<g id="edge6" class="edge">
<title>AuthModule&#45;&gt;AuthService </title>
<path fill="none" stroke="black" stroke-dasharray="5,2" d="M237.39,-189.56C237.39,-182.37 237.39,-175.8 237.39,-175.8 237.39,-175.8 75.84,-175.8 75.84,-175.8 75.84,-175.8 75.84,-95.29 75.84,-95.29"/>
<polygon fill="black" stroke="black" points="79.34,-95.29 75.84,-85.29 72.34,-95.29 79.34,-95.29"/>
</g>
<!-- LoginModule&#45;&gt;AppModule -->
<g id="edge2" class="edge">
<title>LoginModule&#45;&gt;AppModule</title>
<path fill="none" stroke="black" d="M274.33,-290.91C274.33,-290.91 274.33,-309.79 274.33,-309.79"/>
<polygon fill="black" stroke="black" points="270.83,-309.79 274.33,-319.79 277.83,-309.79 270.83,-309.79"/>
</g>
<!-- UsersModule -->
<g id="node3" class="node">
<title>UsersModule</title>
<polygon fill="#8dd3c7" stroke="black" points="295.92,-160.8 292.92,-164.8 271.92,-164.8 268.92,-160.8 204.08,-160.8 204.08,-124.8 295.92,-124.8 295.92,-160.8"/>
<text text-anchor="middle" x="250" y="-138.6" font-family="Times,serif" font-size="14.00">UsersModule</text>
</g>
<!-- UsersModule&#45;&gt;AuthModule -->
<g id="edge5" class="edge">
<title>UsersModule&#45;&gt;AuthModule</title>
<path fill="none" stroke="black" d="M266.55,-160.91C266.55,-160.91 266.55,-179.79 266.55,-179.79"/>
<polygon fill="black" stroke="black" points="263.05,-179.79 266.55,-189.79 270.05,-179.79 263.05,-179.79"/>
</g>
<!-- UsersModule&#45;&gt;AppModule -->
<g id="edge3" class="edge">
<title>UsersModule&#45;&gt;AppModule</title>
<path fill="none" stroke="black" d="M295.96,-142.8C311.96,-142.8 326,-142.8 326,-142.8 326,-142.8 326,-309.45 326,-309.45"/>
<polygon fill="black" stroke="black" points="322.5,-309.45 326,-319.45 329.5,-309.45 322.5,-309.45"/>
</g>
<!-- DatabaseModule -->
<g id="node5" class="node">
<title>DatabaseModule</title>
<polygon fill="#8dd3c7" stroke="black" points="248.35,-84.8 245.35,-88.8 224.35,-88.8 221.35,-84.8 137.65,-84.8 137.65,-48.8 248.35,-48.8 248.35,-84.8"/>
<text text-anchor="middle" x="193" y="-62.6" font-family="Times,serif" font-size="14.00">DatabaseModule</text>
</g>
<!-- DatabaseModule&#45;&gt;AuthModule -->
<g id="edge4" class="edge">
<title>DatabaseModule&#45;&gt;AuthModule</title>
<path fill="none" stroke="black" d="M183.78,-84.94C183.78,-123.03 183.78,-207.8 183.78,-207.8 183.78,-207.8 198.41,-207.8 198.41,-207.8"/>
<polygon fill="black" stroke="black" points="198.41,-211.3 208.41,-207.8 198.41,-204.3 198.41,-211.3"/>
</g>
<!-- DatabaseModule&#45;&gt;UsersModule -->
<g id="edge13" class="edge">
<title>DatabaseModule&#45;&gt;UsersModule</title>
<path fill="none" stroke="black" d="M226.36,-84.81C226.36,-84.81 226.36,-114.65 226.36,-114.65"/>
<polygon fill="black" stroke="black" points="222.86,-114.65 226.36,-124.65 229.86,-114.65 222.86,-114.65"/>
</g>
<!-- AuthService -->
<g id="node7" class="node">
<title>AuthService</title>
<ellipse fill="#fdb462" stroke="black" cx="473" cy="-66.8" rx="59.11" ry="18"/>
<text text-anchor="middle" x="473" y="-62.6" font-family="Times,serif" font-size="14.00">AuthService</text>
</g>
<!-- AuthService&#45;&gt;AuthModule -->
<g id="edge7" class="edge">
<title>AuthService&#45;&gt;AuthModule</title>
<path fill="none" stroke="black" d="M473,-85.01C473,-121.86 473,-201.8 473,-201.8 473,-201.8 305.66,-201.8 305.66,-201.8"/>
<polygon fill="black" stroke="black" points="305.66,-198.3 295.66,-201.8 305.66,-205.3 305.66,-198.3"/>
</g>
<!-- JwtStrategy -->
<g id="node8" class="node">
<title>JwtStrategy</title>
<ellipse fill="#fdb462" stroke="black" cx="607" cy="-66.8" rx="56.76" ry="18"/>
<text text-anchor="middle" x="607" y="-62.6" font-family="Times,serif" font-size="14.00">JwtStrategy</text>
</g>
<!-- JwtStrategy&#45;&gt;AuthModule -->
<g id="edge8" class="edge">
<title>JwtStrategy&#45;&gt;AuthModule</title>
<path fill="none" stroke="black" d="M607,-84.94C607,-123.03 607,-207.8 607,-207.8 607,-207.8 305.89,-207.8 305.89,-207.8"/>
<polygon fill="black" stroke="black" points="305.89,-204.3 295.89,-207.8 305.89,-211.3 305.89,-204.3"/>
</g>
<!-- LocalStrategy -->
<g id="node9" class="node">
<title>LocalStrategy</title>
<ellipse fill="#fdb462" stroke="black" cx="747" cy="-66.8" rx="65.41" ry="18"/>
<text text-anchor="middle" x="747" y="-62.6" font-family="Times,serif" font-size="14.00">LocalStrategy</text>
</g>
<!-- LocalStrategy&#45;&gt;AuthModule -->
<g id="edge9" class="edge">
<title>LocalStrategy&#45;&gt;AuthModule</title>
<path fill="none" stroke="black" d="M747,-84.83C747,-124.08 747,-213.8 747,-213.8 747,-213.8 305.93,-213.8 305.93,-213.8"/>
<polygon fill="black" stroke="black" points="305.93,-210.3 295.93,-213.8 305.93,-217.3 305.93,-210.3"/>
</g>
<!-- UsersService -->
<g id="node10" class="node">
<title>UsersService</title>
<ellipse fill="#fdb462" stroke="black" cx="334" cy="-66.8" rx="61.95" ry="18"/>
<text text-anchor="middle" x="334" y="-62.6" font-family="Times,serif" font-size="14.00">UsersService</text>
</g>
<!-- UsersService&#45;&gt;AuthModule -->
<g id="edge10" class="edge">
<title>UsersService&#45;&gt;AuthModule</title>
<path fill="none" stroke="black" d="M306.33,-83.14C306.33,-117.85 306.33,-195.8 306.33,-195.8 306.33,-195.8 305.26,-195.8 305.26,-195.8"/>
<polygon fill="black" stroke="black" points="305.6,-192.3 295.6,-195.8 305.6,-199.3 305.6,-192.3"/>
</g>
<!-- UsersService&#45;&gt;UsersModule -->
<g id="edge14" class="edge">
<title>UsersService&#45;&gt;UsersModule</title>
<path fill="none" stroke="black" d="M283.87,-77.69C283.87,-77.69 283.87,-114.59 283.87,-114.59"/>
<polygon fill="black" stroke="black" points="280.37,-114.59 283.87,-124.59 287.37,-114.59 280.37,-114.59"/>
</g>
<!-- LoginService -->
<g id="node11" class="node">
<title>LoginService</title>
<ellipse fill="#fdb462" stroke="black" cx="101" cy="-207.8" rx="63.12" ry="18"/>
<text text-anchor="middle" x="101" y="-203.6" font-family="Times,serif" font-size="14.00">LoginService</text>
</g>
<!-- LoginService&#45;&gt;LoginModule -->
<g id="edge12" class="edge">
<title>LoginService&#45;&gt;LoginModule</title>
<path fill="none" stroke="black" d="M101,-225.91C101,-245.14 101,-272.8 101,-272.8 101,-272.8 193.26,-272.8 193.26,-272.8"/>
<polygon fill="black" stroke="black" points="193.26,-276.3 203.26,-272.8 193.26,-269.3 193.26,-276.3"/>
</g>
</g>
</svg>
