<?xml version="1.0" encoding="UTF-8" standalone="no"?>
<!DOCTYPE svg PUBLIC "-//W3C//DTD SVG 1.1//EN"
 "http://www.w3.org/Graphics/SVG/1.1/DTD/svg11.dtd">
<!-- Generated by graphviz version 2.47.3 (20210619.1520)
 -->
<!-- Title: dependencies Pages: 1 -->
<svg width="258pt" height="174pt"
 viewBox="0.00 0.00 258.00 173.80" xmlns="http://www.w3.org/2000/svg" xmlns:xlink="http://www.w3.org/1999/xlink">
<g id="graph0" class="graph" transform="scale(1 1) rotate(0) translate(4 169.8)">
<title>dependencies</title>
<polygon fill="white" stroke="transparent" points="-4,4 -4,-169.8 254,-169.8 254,4 -4,4"/>
<text text-anchor="middle" x="125" y="-8.2" font-family="sans-serif" font-size="14.00">dependencies</text>
<g id="clust1" class="cluster">
<title>cluster_AppModule</title>
<polygon fill="none" stroke="black" stroke-dasharray="1,5" points="8,-32.8 8,-157.8 242,-157.8 242,-32.8 8,-32.8"/>
</g>
<g id="clust3" class="cluster">
<title>cluster_AppModule_imports</title>
<polygon fill="none" stroke="black" points="16,-40.8 16,-92.8 234,-92.8 234,-40.8 16,-40.8"/>
</g>
<!-- LoginModule -->
<g id="node1" class="node">
<title>LoginModule</title>
<polygon fill="#8dd3c7" stroke="black" points="226.49,-84.8 223.49,-88.8 202.49,-88.8 199.49,-84.8 133.51,-84.8 133.51,-48.8 226.49,-48.8 226.49,-84.8"/>
<text text-anchor="middle" x="180" y="-62.6" font-family="Times,serif" font-size="14.00">LoginModule</text>
</g>
<!-- AppModule -->
<g id="node3" class="node">
<title>AppModule</title>
<polygon fill="#8dd3c7" stroke="black" points="166.66,-149.8 163.66,-153.8 142.66,-153.8 139.66,-149.8 83.34,-149.8 83.34,-113.8 166.66,-113.8 166.66,-149.8"/>
<text text-anchor="middle" x="125" y="-127.6" font-family="Times,serif" font-size="14.00">AppModule</text>
</g>
<!-- LoginModule&#45;&gt;AppModule -->
<g id="edge1" class="edge">
<title>LoginModule&#45;&gt;AppModule</title>
<path fill="none" stroke="black" d="M150.17,-84.91C150.17,-84.91 150.17,-103.79 150.17,-103.79"/>
<polygon fill="black" stroke="black" points="146.67,-103.79 150.17,-113.79 153.67,-103.79 146.67,-103.79"/>
</g>
<!-- UsersModule -->
<g id="node2" class="node">
<title>UsersModule</title>
<polygon fill="#8dd3c7" stroke="black" points="115.92,-84.8 112.92,-88.8 91.92,-88.8 88.92,-84.8 24.08,-84.8 24.08,-48.8 115.92,-48.8 115.92,-84.8"/>
<text text-anchor="middle" x="70" y="-62.6" font-family="Times,serif" font-size="14.00">UsersModule</text>
</g>
<!-- UsersModule&#45;&gt;AppModule -->
<g id="edge2" class="edge">
<title>UsersModule&#45;&gt;AppModule</title>
<path fill="none" stroke="black" d="M99.44,-84.91C99.44,-84.91 99.44,-103.79 99.44,-103.79"/>
<polygon fill="black" stroke="black" points="95.94,-103.79 99.44,-113.79 102.94,-103.79 95.94,-103.79"/>
</g>
</g>
</svg>
