<?xml version="1.0" encoding="UTF-8" standalone="no"?>
<!DOCTYPE svg PUBLIC "-//W3C//DTD SVG 1.1//EN"
 "http://www.w3.org/Graphics/SVG/1.1/DTD/svg11.dtd">
<!-- Generated by graphviz version 2.47.3 (20210619.1520)
 -->
<!-- Title: dependencies Pages: 1 -->
<svg width="364pt" height="174pt"
 viewBox="0.00 0.00 364.00 173.80" xmlns="http://www.w3.org/2000/svg" xmlns:xlink="http://www.w3.org/1999/xlink">
<g id="graph0" class="graph" transform="scale(1 1) rotate(0) translate(4 169.8)">
<title>dependencies</title>
<polygon fill="white" stroke="transparent" points="-4,4 -4,-169.8 360,-169.8 360,4 -4,4"/>
<text text-anchor="middle" x="178" y="-8.2" font-family="sans-serif" font-size="14.00">dependencies</text>
<g id="clust1" class="cluster">
<title>cluster_AppModule</title>
<polygon fill="none" stroke="black" stroke-dasharray="1,5" points="8,-32.8 8,-157.8 348,-157.8 348,-32.8 8,-32.8"/>
</g>
<g id="clust3" class="cluster">
<title>cluster_AppModule_imports</title>
<polygon fill="none" stroke="black" points="16,-40.8 16,-92.8 340,-92.8 340,-40.8 16,-40.8"/>
</g>
<!-- AuthModule -->
<g id="node1" class="node">
<title>AuthModule</title>
<polygon fill="#8dd3c7" stroke="black" points="331.55,-84.8 328.55,-88.8 307.55,-88.8 304.55,-84.8 244.45,-84.8 244.45,-48.8 331.55,-48.8 331.55,-84.8"/>
<text text-anchor="middle" x="288" y="-62.6" font-family="Times,serif" font-size="14.00">AuthModule</text>
</g>
<!-- AppModule -->
<g id="node4" class="node">
<title>AppModule</title>
<polygon fill="#8dd3c7" stroke="black" points="221.66,-149.8 218.66,-153.8 197.66,-153.8 194.66,-149.8 138.34,-149.8 138.34,-113.8 221.66,-113.8 221.66,-149.8"/>
<text text-anchor="middle" x="180" y="-127.6" font-family="Times,serif" font-size="14.00">AppModule</text>
</g>
<!-- AuthModule&#45;&gt;AppModule -->
<g id="edge1" class="edge">
<title>AuthModule&#45;&gt;AppModule</title>
<path fill="none" stroke="black" d="M288,-84.91C288,-104.14 288,-131.8 288,-131.8 288,-131.8 231.76,-131.8 231.76,-131.8"/>
<polygon fill="black" stroke="black" points="231.76,-128.3 221.76,-131.8 231.76,-135.3 231.76,-128.3"/>
</g>
<!-- LoginModule -->
<g id="node2" class="node">
<title>LoginModule</title>
<polygon fill="#8dd3c7" stroke="black" points="226.49,-84.8 223.49,-88.8 202.49,-88.8 199.49,-84.8 133.51,-84.8 133.51,-48.8 226.49,-48.8 226.49,-84.8"/>
<text text-anchor="middle" x="180" y="-62.6" font-family="Times,serif" font-size="14.00">LoginModule</text>
</g>
<!-- LoginModule&#45;&gt;AppModule -->
<g id="edge2" class="edge">
<title>LoginModule&#45;&gt;AppModule</title>
<path fill="none" stroke="black" d="M180,-84.91C180,-84.91 180,-103.79 180,-103.79"/>
<polygon fill="black" stroke="black" points="176.5,-103.79 180,-113.79 183.5,-103.79 176.5,-103.79"/>
</g>
<!-- UsersModule -->
<g id="node3" class="node">
<title>UsersModule</title>
<polygon fill="#8dd3c7" stroke="black" points="115.92,-84.8 112.92,-88.8 91.92,-88.8 88.92,-84.8 24.08,-84.8 24.08,-48.8 115.92,-48.8 115.92,-84.8"/>
<text text-anchor="middle" x="70" y="-62.6" font-family="Times,serif" font-size="14.00">UsersModule</text>
</g>
<!-- UsersModule&#45;&gt;AppModule -->
<g id="edge3" class="edge">
<title>UsersModule&#45;&gt;AppModule</title>
<path fill="none" stroke="black" d="M70,-84.91C70,-104.14 70,-131.8 70,-131.8 70,-131.8 128.1,-131.8 128.1,-131.8"/>
<polygon fill="black" stroke="black" points="128.1,-135.3 138.1,-131.8 128.1,-128.3 128.1,-135.3"/>
</g>
</g>
</svg>
