<?xml version="1.0" encoding="UTF-8" standalone="no"?>
<!DOCTYPE svg PUBLIC "-//W3C//DTD SVG 1.1//EN"
 "http://www.w3.org/Graphics/SVG/1.1/DTD/svg11.dtd">
<!-- Generated by graphviz version 2.47.3 (20210619.1520)
 -->
<!-- Title: dependencies Pages: 1 -->
<svg width="480pt" height="250pt"
 viewBox="0.00 0.00 480.00 249.80" xmlns="http://www.w3.org/2000/svg" xmlns:xlink="http://www.w3.org/1999/xlink">
<g id="graph0" class="graph" transform="scale(1 1) rotate(0) translate(4 245.8)">
<title>dependencies</title>
<polygon fill="white" stroke="transparent" points="-4,4 -4,-245.8 476,-245.8 476,4 -4,4"/>
<text text-anchor="middle" x="236" y="-8.2" font-family="sans-serif" font-size="14.00">dependencies</text>
<g id="clust1" class="cluster">
<title>cluster_AppModule</title>
<polygon fill="none" stroke="black" stroke-dasharray="1,5" points="80,-108.8 80,-233.8 314,-233.8 314,-108.8 80,-108.8"/>
</g>
<g id="clust3" class="cluster">
<title>cluster_AppModule_imports</title>
<polygon fill="none" stroke="black" points="88,-116.8 88,-168.8 306,-168.8 306,-116.8 88,-116.8"/>
</g>
<g id="clust13" class="cluster">
<title>cluster_LoginModule</title>
<polygon fill="none" stroke="black" stroke-dasharray="1,5" points="8,-32.8 8,-100.8 166,-100.8 166,-32.8 8,-32.8"/>
</g>
<g id="clust18" class="cluster">
<title>cluster_LoginModule_providers</title>
<polygon fill="none" stroke="black" points="16,-40.8 16,-92.8 158,-92.8 158,-40.8 16,-40.8"/>
</g>
<g id="clust19" class="cluster">
<title>cluster_UsersModule</title>
<polygon fill="none" stroke="black" stroke-dasharray="1,5" points="174,-32.8 174,-100.8 464,-100.8 464,-32.8 174,-32.8"/>
</g>
<g id="clust21" class="cluster">
<title>cluster_UsersModule_imports</title>
<polygon fill="none" stroke="black" points="330,-40.8 330,-92.8 456,-92.8 456,-40.8 330,-40.8"/>
</g>
<g id="clust24" class="cluster">
<title>cluster_UsersModule_providers</title>
<polygon fill="none" stroke="black" points="182,-40.8 182,-92.8 322,-92.8 322,-40.8 182,-40.8"/>
</g>
<!-- LoginModule -->
<g id="node1" class="node">
<title>LoginModule</title>
<polygon fill="#8dd3c7" stroke="black" points="188.49,-160.8 185.49,-164.8 164.49,-164.8 161.49,-160.8 95.51,-160.8 95.51,-124.8 188.49,-124.8 188.49,-160.8"/>
<text text-anchor="middle" x="142" y="-138.6" font-family="Times,serif" font-size="14.00">LoginModule</text>
</g>
<!-- AppModule -->
<g id="node3" class="node">
<title>AppModule</title>
<polygon fill="#8dd3c7" stroke="black" points="238.66,-225.8 235.66,-229.8 214.66,-229.8 211.66,-225.8 155.34,-225.8 155.34,-189.8 238.66,-189.8 238.66,-225.8"/>
<text text-anchor="middle" x="197" y="-203.6" font-family="Times,serif" font-size="14.00">AppModule</text>
</g>
<!-- LoginModule&#45;&gt;AppModule -->
<g id="edge1" class="edge">
<title>LoginModule&#45;&gt;AppModule</title>
<path fill="none" stroke="black" d="M171.83,-160.91C171.83,-160.91 171.83,-179.79 171.83,-179.79"/>
<polygon fill="black" stroke="black" points="168.33,-179.79 171.83,-189.79 175.33,-179.79 168.33,-179.79"/>
</g>
<!-- UsersModule -->
<g id="node2" class="node">
<title>UsersModule</title>
<polygon fill="#8dd3c7" stroke="black" points="297.92,-160.8 294.92,-164.8 273.92,-164.8 270.92,-160.8 206.08,-160.8 206.08,-124.8 297.92,-124.8 297.92,-160.8"/>
<text text-anchor="middle" x="252" y="-138.6" font-family="Times,serif" font-size="14.00">UsersModule</text>
</g>
<!-- UsersModule&#45;&gt;AppModule -->
<g id="edge2" class="edge">
<title>UsersModule&#45;&gt;AppModule</title>
<path fill="none" stroke="black" d="M222.56,-160.91C222.56,-160.91 222.56,-179.79 222.56,-179.79"/>
<polygon fill="black" stroke="black" points="219.06,-179.79 222.56,-189.79 226.06,-179.79 219.06,-179.79"/>
</g>
<!-- LoginService -->
<g id="node4" class="node">
<title>LoginService</title>
<ellipse fill="#fdb462" stroke="black" cx="87" cy="-66.8" rx="63.12" ry="18"/>
<text text-anchor="middle" x="87" y="-62.6" font-family="Times,serif" font-size="14.00">LoginService</text>
</g>
<!-- LoginService&#45;&gt;LoginModule -->
<g id="edge3" class="edge">
<title>LoginService&#45;&gt;LoginModule</title>
<path fill="none" stroke="black" d="M122.78,-81.82C122.78,-81.82 122.78,-114.6 122.78,-114.6"/>
<polygon fill="black" stroke="black" points="119.28,-114.6 122.78,-124.6 126.28,-114.6 119.28,-114.6"/>
</g>
<!-- DatabaseModule -->
<g id="node5" class="node">
<title>DatabaseModule</title>
<polygon fill="#8dd3c7" stroke="black" points="448.35,-84.8 445.35,-88.8 424.35,-88.8 421.35,-84.8 337.65,-84.8 337.65,-48.8 448.35,-48.8 448.35,-84.8"/>
<text text-anchor="middle" x="393" y="-62.6" font-family="Times,serif" font-size="14.00">DatabaseModule</text>
</g>
<!-- DatabaseModule&#45;&gt;UsersModule -->
<g id="edge4" class="edge">
<title>DatabaseModule&#45;&gt;UsersModule</title>
<path fill="none" stroke="black" d="M393,-84.81C393,-107.29 393,-142.8 393,-142.8 393,-142.8 307.78,-142.8 307.78,-142.8"/>
<polygon fill="black" stroke="black" points="307.78,-139.3 297.78,-142.8 307.78,-146.3 307.78,-139.3"/>
</g>
<!-- UsersService -->
<g id="node6" class="node">
<title>UsersService</title>
<ellipse fill="#fdb462" stroke="black" cx="252" cy="-66.8" rx="61.95" ry="18"/>
<text text-anchor="middle" x="252" y="-62.6" font-family="Times,serif" font-size="14.00">UsersService</text>
</g>
<!-- UsersService&#45;&gt;UsersModule -->
<g id="edge5" class="edge">
<title>UsersService&#45;&gt;UsersModule</title>
<path fill="none" stroke="black" d="M252,-84.81C252,-84.81 252,-114.65 252,-114.65"/>
<polygon fill="black" stroke="black" points="248.5,-114.65 252,-124.65 255.5,-114.65 248.5,-114.65"/>
</g>
</g>
</svg>
